<?xml version="1.0" encoding="UTF-8" standalone="no"?><!-- Generator: Gravit.io --><svg xmlns="http://www.w3.org/2000/svg" xmlns:xlink="http://www.w3.org/1999/xlink" style="isolation:isolate" viewBox="113.727 228.853 131.661 120.426" width="131.661pt" height="120.426pt"><g style="isolation:isolate"><path d=" M 242.828 281.624 C 241.656 281.13 240.637 280.286 239.927 279.232 C 239.216 278.173 238.81 276.944 238.807 275.558 L 238.807 249.29 C 238.808 246.488 238.235 243.782 237.198 241.333 C 235.642 237.657 233.059 234.55 229.801 232.348 C 226.548 230.145 222.579 228.851 218.37 228.853 L 214.845 228.853 L 179.557 277.299 L 144.27 228.853 L 140.745 228.853 C 137.942 228.852 135.236 229.425 132.788 230.462 C 129.111 232.019 126.005 234.601 123.802 237.859 C 121.599 241.112 120.305 245.082 120.308 249.29 L 120.308 275.558 C 120.307 276.485 120.124 277.333 119.793 278.117 C 119.299 279.289 118.456 280.308 117.402 281.018 C 116.343 281.729 115.114 282.135 113.727 282.138 L 113.727 295.995 C 114.655 295.996 115.503 296.179 116.287 296.509 C 117.459 297.003 118.477 297.847 119.188 298.901 C 119.898 299.959 120.305 301.188 120.308 302.575 L 120.308 328.842 C 120.307 331.645 120.88 334.351 121.917 336.799 C 123.473 340.476 126.055 343.582 129.313 345.785 C 132.567 347.988 136.536 349.282 140.745 349.279 L 140.745 335.423 C 139.817 335.422 138.969 335.239 138.186 334.908 C 137.014 334.414 135.995 333.571 135.284 332.517 C 134.574 331.458 134.167 330.229 134.164 328.842 L 134.164 302.575 C 134.165 299.773 133.592 297.067 132.555 294.618 C 131.688 292.569 130.493 290.706 129.049 289.07 C 129.63 288.411 130.176 287.72 130.67 286.989 C 132.873 283.736 134.167 279.766 134.164 275.558 L 134.164 249.29 C 134.165 248.363 134.348 247.515 134.679 246.731 C 135.173 245.559 136.017 244.541 137.07 243.83 C 137.288 243.683 137.518 243.559 137.751 243.439 L 174.446 293.817 L 184.668 293.817 L 221.36 243.445 C 222.347 243.952 223.21 244.696 223.831 245.616 C 224.541 246.675 224.948 247.904 224.95 249.29 L 224.95 275.558 C 224.949 278.36 225.522 281.066 226.559 283.515 C 227.427 285.563 228.622 287.426 230.066 289.063 C 229.485 289.722 228.939 290.413 228.445 291.144 C 226.242 294.397 224.948 298.366 224.95 302.575 L 224.95 328.842 C 224.949 329.77 224.766 330.618 224.436 331.402 C 223.942 332.574 223.098 333.592 222.044 334.303 C 220.986 335.013 219.757 335.42 218.37 335.423 L 218.37 349.279 C 221.173 349.28 223.878 348.707 226.327 347.67 C 230.004 346.114 233.11 343.532 235.313 340.274 C 237.515 337.02 238.81 333.051 238.807 328.842 L 238.807 302.575 C 238.808 301.647 238.991 300.799 239.321 300.016 C 239.815 298.844 240.659 297.825 241.713 297.114 C 242.772 296.404 244.001 295.998 245.388 295.995 L 245.388 282.138 C 244.46 282.137 243.612 281.954 242.828 281.624 Z " fill="rgb(48,121,188)"/><path d=" M 172.244 289.055 L 172.244 349.279 L 186.87 349.279 L 186.87 289.055" fill="rgb(48,121,188)"/><path d=" M 160.42 349.279 L 198.695 349.279 L 198.695 335.472 L 160.42 335.472" fill="rgb(48,121,188)"/></g></svg>